<svg height="512pt" viewBox="0 -4 512.001 512" width="512pt" xmlns="http://www.w3.org/2000/svg"><path d="m297.835938 504.679688c-4.621094 0-9.046876-2.128907-11.925782-5.867188-7.21875-9.371094-18.121094-14.746094-29.910156-14.746094s-22.691406 5.375-29.910156 14.746094c-3.417969 4.4375-9.023438 6.613281-14.542969 5.640625s-10.042969-4.933594-11.738281-10.273437c-3.578125-11.273438-11.984375-20.054688-23.0625-24.085938-11.082032-4.035156-23.164063-2.710938-33.148438 3.625-4.734375 3.003906-10.742187 3.128906-15.597656.324219-4.851562-2.800781-7.75-8.066407-7.515625-13.667969.496094-11.816406-4.402344-22.941406-13.433594-30.519531s-20.839843-10.46875-32.390625-7.929688c-5.476562 1.199219-11.164062-.734375-14.765625-5.03125-3.605469-4.292969-4.523437-10.230469-2.386719-15.414062 4.503907-10.9375 3.707032-23.0625-2.1875-33.273438-5.894531-10.210937-16-16.96875-27.726562-18.53125-5.554688-.742187-10.238281-4.507812-12.15625-9.777343-1.914062-5.265626-.75-11.160157 3.03125-15.300782 7.972656-8.734375 11.371094-20.40625 9.324219-32.015625-2.046875-11.613281-9.230469-21.417969-19.714844-26.898437-4.964844-2.597656-8.078125-7.738282-8.078125-13.34375 0-5.605469 3.113281-10.746094 8.078125-13.339844 10.484375-5.484375 17.667969-15.285156 19.714844-26.898438 2.050781-11.609374-1.351563-23.28125-9.324219-32.015624-3.78125-4.140626-4.945312-10.035157-3.03125-15.300782 1.917969-5.269531 6.601562-9.035156 12.15625-9.777344 11.726562-1.566406 21.832031-8.320312 27.726562-18.53125 5.894532-10.210937 6.691407-22.339843 2.1875-33.273437-2.136718-5.183594-1.21875-11.121094 2.386719-15.414063 3.601563-4.296874 9.289063-6.230468 14.765625-5.027343 11.550782 2.535156 23.355469-.355469 32.390625-7.933594 9.03125-7.578125 13.929688-18.703125 13.433594-30.519531-.230469-5.601563 2.664063-10.867188 7.515625-13.667969 4.855469-2.804687 10.863281-2.679687 15.597656.324219 9.988282 6.335937 22.070313 7.660156 33.148438 3.625 11.082031-4.035156 19.484375-12.8125 23.0625-24.085938 1.695312-5.34375 6.21875-9.300781 11.738281-10.273437 5.519531-.972657 11.125 1.199219 14.542969 5.640625 7.21875 9.371094 18.121094 14.746094 29.910156 14.746094s22.695312-5.375 29.910156-14.746094c3.421875-4.441406 9.023438-6.617188 14.542969-5.640625 5.519531.972656 10.042969 4.933593 11.738281 10.273437 3.578125 11.273438 11.984375 20.050782 23.0625 24.085938 11.082032 4.03125 23.164063 2.710937 33.152344-3.625 4.730469-3.003906 10.742188-3.128906 15.59375-.324219 4.855469 2.800781 7.75 8.066406 7.515625 13.667969-.492187 11.816406 4.402344 22.941406 13.4375 30.519531 9.03125 7.582031 20.835937 10.472656 32.386719 7.933594 5.472656-1.207031 11.164062.730469 14.769531 5.027343 3.601563 4.292969 4.519531 10.230469 2.386719 15.414063-4.507813 10.933594-3.710938 23.0625 2.183594 33.273437 5.898437 10.210938 16 16.96875 27.726562 18.53125 5.554688.742188 10.238281 4.507813 12.15625 9.777344 1.917969 5.265625.75 11.160156-3.027344 15.300782-7.976562 8.734374-11.375 20.40625-9.328125 32.015624 2.046875 11.613282 9.230469 21.414063 19.714844 26.898438 4.964844 2.59375 8.078125 7.734375 8.078125 13.339844 0 5.605468-3.113281 10.746094-8.078125 13.34375-10.484375 5.480468-17.667969 15.285156-19.714844 26.898437-2.046875 11.609375 1.351563 23.277344 9.328125 32.015625 3.777344 4.140625 4.945313 10.035156 3.027344 15.300782-1.917969 5.269531-6.601562 9.035156-12.15625 9.777343-11.722656 1.566407-21.828125 8.320313-27.726562 18.53125-5.894532 10.210938-6.691407 22.335938-2.183594 33.273438 2.132812 5.183593 1.214844 11.121093-2.386719 15.414062-3.605469 4.292969-9.292969 6.234375-14.769531 5.03125-11.550782-2.542969-23.355469.347657-32.386719 7.929688-9.035156 7.578125-13.929687 18.703125-13.4375 30.519531.234375 5.601562-2.660156 10.867188-7.515625 13.667969-4.855469 2.804687-10.863281 2.679687-15.59375-.324219-9.988281-6.335938-22.070312-7.65625-33.152344-3.625-11.078125 4.03125-19.484375 12.8125-23.0625 24.085938-1.695312 5.339843-6.21875 9.300781-11.738281 10.273437-.875.152344-1.746094.226563-2.617187.226563zm0 0" fill="#ffbc36"/><path d="m503.921875 239c-10.484375-5.484375-17.667969-15.285156-19.714844-26.898438-2.050781-11.609374 1.351563-23.28125 9.324219-32.015624 3.78125-4.140626 4.945312-10.035157 3.03125-15.300782-1.917969-5.269531-6.601562-9.035156-12.15625-9.777344-11.726562-1.566406-21.832031-8.320312-27.726562-18.53125-5.894532-10.210937-6.691407-22.339843-2.1875-33.273437 2.136718-5.183594 1.21875-11.121094-2.386719-15.414063-3.601563-4.296874-9.292969-6.234374-14.765625-5.027343-11.550782 2.535156-23.355469-.355469-32.390625-7.933594-9.03125-7.578125-13.929688-18.703125-13.433594-30.519531.234375-5.601563-2.660156-10.867188-7.515625-13.667969-4.855469-2.804687-10.863281-2.679687-15.597656.324219-9.984375 6.335937-22.066406 7.65625-33.148438 3.625-11.078125-4.035156-19.484375-12.8125-23.0625-24.085938-1.695312-5.34375-6.21875-9.300781-11.738281-10.273437-5.519531-.976563-11.125 1.199219-14.542969 5.640625-7.21875 9.371094-18.121094 14.746094-29.910156 14.746094h-.003906v463.449218h.003906c11.789062 0 22.691406 5.375 29.910156 14.746094 2.878906 3.738281 7.304688 5.867188 11.925782 5.867188.871093 0 1.742187-.074219 2.617187-.226563 5.519531-.976563 10.042969-4.933594 11.738281-10.273437 3.578125-11.277344 11.984375-20.054688 23.0625-24.085938 11.082032-4.03125 23.164063-2.710938 33.148438 3.625 4.734375 3 10.742187 3.128906 15.597656.324219 4.851562-2.800781 7.75-8.066407 7.515625-13.667969-.496094-11.816406 4.402344-22.941406 13.433594-30.519531 9.035156-7.582031 20.839843-10.472657 32.390625-7.933594 5.476562 1.203125 11.164062-.734375 14.765625-5.027344 3.605469-4.292969 4.523437-10.234375 2.386719-15.414062-4.503907-10.9375-3.707032-23.066407 2.1875-33.277344 5.894531-10.210937 16-16.964844 27.726562-18.53125 5.554688-.738281 10.238281-4.507813 12.15625-9.773437 1.914062-5.265626.75-11.164063-3.03125-15.300782-7.972656-8.738281-11.371094-20.40625-9.324219-32.019531 2.046875-11.609375 9.230469-21.414063 19.714844-26.894531 4.964844-2.597656 8.078125-7.738282 8.078125-13.34375 0-5.605469-3.113281-10.746094-8.078125-13.339844zm0 0" fill="#fa732d"/><path d="m256 416.984375c-90.785156 0-164.640625-73.859375-164.640625-164.644531 0-90.78125 73.855469-164.640625 164.640625-164.640625s164.640625 73.859375 164.640625 164.640625c0 90.785156-73.855469 164.644531-164.640625 164.644531zm0 0" fill="#fff566"/><path d="m256 87.699219h-.003906v329.285156h.003906c90.785156 0 164.640625-73.859375 164.640625-164.644531 0-90.78125-73.855469-164.640625-164.640625-164.640625zm0 0" fill="#ffbc36"/></svg>